<?xml version="1.0" encoding="utf-8"?>
<!-- Generator: Adobe Illustrator 20.1.0, SVG Export Plug-In . SVG Version: 6.00 Build 0)  -->
<svg version="1.1" xmlns="http://www.w3.org/2000/svg" xmlns:xlink="http://www.w3.org/1999/xlink" x="0px" y="0px" width="2800px"
	 height="2800px" viewBox="0 0 2800 2800" style="enable-background:new 0 0 2800 2800;" xml:space="preserve">
<style type="text/css">
	.st0{fill:#8692A5;}
	.st1{clip-path:url(#SVGID_2_);fill:#7E8A9B;}
	.st2{clip-path:url(#SVGID_2_);fill:#B6AA9A;}
	.st3{clip-path:url(#SVGID_2_);fill:#AEBDDE;}
	.st4{clip-path:url(#SVGID_2_);}
	.st5{fill:#E2AFAF;}
	.st6{fill:#FCE4C8;}
	.st7{fill:#462548;}
	.st8{fill:#AEBDDE;}
	.st9{fill:#E4C8AC;}
	.st10{fill:#D6A3A4;}
	.st11{clip-path:url(#SVGID_2_);fill:#462548;}
	.st12{clip-path:url(#SVGID_2_);fill:#FCE4C8;}
	.st13{clip-path:url(#SVGID_2_);fill:#E4C8AC;}
	.st14{clip-path:url(#SVGID_2_);fill:#FFFFFF;}
	.st15{clip-path:url(#SVGID_2_);fill:#A59A8C;}
</style>
<g id="Capa_2">
	<g>
		<g>
			<g>
				<g>
					
						<rect x="-23.5" y="-23.5" transform="matrix(-1.836970e-16 1 -1 -1.836970e-16 2800 -2.273737e-13)" class="st0" width="2846.9" height="2846.9"/>
				</g>
			</g>
		</g>
	</g>
</g>
<g id="Capa_4">
	<g>
		<defs>
			
				<rect id="SVGID_1_" x="-23.5" y="-23.5" transform="matrix(-1.836970e-16 1 -1 -1.836970e-16 2800 -2.273737e-13)" width="2846.9" height="2846.9"/>
		</defs>
		<clipPath id="SVGID_2_">
			<use xlink:href="#SVGID_1_"  style="overflow:visible;"/>
		</clipPath>
		<path class="st1" d="M2963.4,2244.1c-8.8-78.8-17.7-157.6-26.5-236.4c-2.2-19.7-4.2-39.4-6.6-59.1c-0.9-7.6-2.2-15.5-7.8-21.2
			c-5.9-6.1-14.5-7.4-22.6-7.1c-39.1,1.5-78.3,5-117.3,7.5c-42.7,2.7-85.5,5.4-128.2,8.2c12.7-49.7,4.1-103.4-20.6-148.2
			c-13.3-24.1-31.4-45.7-53.2-62.5c-25.2-19.4-54.9-28-83-42c-16-8-30.5-18.1-39.4-34c-1.5-2.7-2.8-5.5-3.9-8.4
			c5-13.3,6.6-27.7,3.2-42.5c-1.7-7.2-11.6-7.8-15.2-2c-8.6,13.7-9.5,29.2-5.5,43.9c-8.3,17.6-23.9,32.6-39.9,42.5
			c-29.9,18.6-64.8,27.3-95,45.5c-48,28.9-75.8,82.9-77.2,138.3c-0.6,26.7,5.1,53.5,17.4,77.1c-58.8,10-119.2,9-177.7-2.9l6.2-414.3
			c1-69.9,2.1-139.8,3.1-209.7c0.5-35,1-69.9,1.6-104.9c0.5-33.3,0.2-66.9,3.9-100c4.1-36.5,16.7-69.5,29.4-103.6
			c10.4-28,18.8-57.2,15.1-86.9c13.7,0.3,27.4-5.5,36.4-16c2.5-2.9,5.9-7,6.7-10.9c1.2-5.4-2.9-12.1-4.7-17.1
			c-4.1-11.8-7.6-23.8-10.5-35.9c-11.4-48.1-12.8-98.5-4.2-147.2c7.8-4.9,15.6-9.9,23.3-14.8c5-3.1,5.8-11.4,0-14.4
			c-12.4-6.2-25.3-8.8-38.8-8c-5.5-25.3-6.1-51.3-9.8-76.9c-3.8-26.1-12.4-50.2-27.1-72.1c-28.2-42.1-70.8-73.1-93.8-118.9
			c-1.8-3.7-3.5-7.4-5.1-11.2c6.6-24.5,7.3-50-2.2-74.8c-3.1-8-12.9-7.7-16,0c-10.4,25.1-8.1,51.2,0.8,75.7
			c-9.3,30.7-28.7,59.6-47.2,84.3c-30.5,40.6-64.1,82.2-71,133.7c-21.3-0.9-41.8,6.6-57.4,21.8c-4,3.9-2.7,10.1,1.7,13.1
			c57,38.5,54,137.2-4.6,172.6c-5,3-5.8,11.5,0,14.4c12.2,6,24.3,12,36.5,18.1c-11.8,29.3-10.8,60.9,1.8,90.3
			c7.2,16.6,16.5,32.2,21.6,49.7c5.3,18.2,7.3,37,8.5,55.8c5,79.8,8.2,159.9,12.2,239.8c8.1,160.3,16.3,320.5,24.4,480.8
			c1.1,22.4,2.3,44.8,3.4,67.3c1.1,20.7,3,41.6,2.4,62.4c-0.5,17.5-3.8,37-17.4,49.2c-11.1,10-27.5,14.6-40.4,5.5
			c-2.7-1.9-5.4-1.9-7.5-0.7c8-42.7-17.9-90.8-58.9-107c-14.9-5.9-29.1-4.5-44.7-5.1c-22-0.9-24.8-19.2-26.7-37.6
			c-4.8-46.2-9.6-92.5-14.4-138.7c-4.7-45-9.3-89.9-14-134.9c-3.4-33-7.1-65.9-14.1-98.3c-12.3-57.2-35.3-117.8-85.6-152.1
			c-15.3-10.5-32.2-16.2-49.6-22.3c-10.4-3.7-20.4-8.2-28.2-16.2c-7.1-7.3-12.1-16.3-17-25.2c-9.3-16.9-18.1-33.3-34.6-44.2
			c-11.6-7.7-25.6-11.3-38.6-7.7c-9.5-31.9-18.9-63.9-28.4-95.8c-2.6-8.7-17-7.5-16.3,2.2c3.8,56.7-3,122.1-43.6,165.5
			c-44.3,47.3-115.6,47.3-166.2,85c-11.6,8.6-22,18.8-30,30.4c1.7-57.4,10.8-114.5,27.2-169.6c5.1-17.2,10.9-34.2,17.4-50.9
			c3.6-9.3,8.5-18.4,11.6-27.8c2.3-6.9-1.6-11.1-4.7-17.4c-14.7-30.4-20-64.4-16.7-97.8c13-3,26-6,39-9c5-1.1,8-7.9,5-12.2
			c-34.9-50.8-30.2-114.7-42.3-172.5c-5.3-25.1-13.5-50.4-27.8-72c-15-22.7-35.3-37.7-60.5-47.4c-14.9-5.8-32.7-10.4-43.6-22.8
			c-4.5-5-8.1-11.9-9.3-18.7c2.8-7.4,5.4-14.9,7.8-22.4c2.7-8.2-8.1-13.5-13.9-8.1c-8.2,7.8-11.3,17.9-10.8,28.2
			C984.2,693,938,765,878.5,824.9c-3.4,3.5-2.8,8.2,0,11.8c9.1,11.5,21.4,18.7,35.3,21.6c-5.2,61.3-4.4,122.9,2.5,184
			c-12.8,5.6-25.5,11.3-38.3,16.9c-8.5,3.8-2.8,14.6,4.2,15.5c17.9,2.2,26.7,23.4,31.4,38.4c6.8,21.8,11.3,44.4,14.6,67
			c6.8,46.6,7.4,94,6.4,141.1c-2.2,97.4-7.8,194.8-12,292.1c-2.3,53.5-4.6,107.1-6.8,160.6c-26.1,5.9-52.2,11.8-78.2,17.7
			c-3.6,0.8-6,4.5-6.1,8c-0.4,18.5-0.9,37.1-1.3,55.6c-37.2-3.7-74.4-7.4-111.6-11.1c-3.2-0.3-7.5,2.8-8,6.1
			c-6.3,41.8-47,75.1-89.8,66.1c-19.9-4.2-38.3-16-49.9-32.8c-14.1-20.6-13.9-45.3-16.7-69.2c-4.2-36-20.2-63.5-49-85.3
			c-25.8-19.5-55.8-32.4-84.2-47.7c-29.1-15.6-59.5-34.8-72.2-66.6c-0.3-1-0.7-2-1.1-3c-4-9.6-19.7-5.9-16,4.4
			c0.3,1,0.7,1.9,1.1,2.9c8.1,23.9-6.7,48.4-25.4,63.3c-23.2,18.5-52.6,26.9-77.1,43.3c-39.1,26.3-63,70.4-68,116.9
			c-2.4,22.6,0.3,45,7.6,66.3c-98.8,18.9-198.9,29.5-299.5,31.7c-4.4-2.7-10.8-1.9-12.1,4.5c-19.1,95.6-33,192.2-41.4,289.3
			c-0.4,4.7,4.2,8.1,8.3,8.3c411.7,25.4,824.5,18.3,1236.4,0.8c410.5-17.4,820.6-45,1231.2-60.4c112.7-4.2,225.9-10.1,338.8-8.7
			c53.3,0.7,107,4.6,158.6,18.4c52.9,14.1,99,41.5,147.1,66.8c7.2,3.8,13.7-3.5,12.4-9.4c1.4,1.4,3.3,2.3,5.6,2.3
			C2959.2,2252.4,2963.9,2248.6,2963.4,2244.1z"/>
		<path class="st2" d="M3055.2,2444.3c1.6-80.4,2.7-162.4-12.4-239.7c-12.5-63.8-36.2-121.8-68.5-170.8
			c-160.5-243.7-431.8-213.4-659.6-178c-137.8,21.4-275.8,45.8-414,50.7c-137.7,4.9-274.6-8.5-411.8-13.3
			c-132.4-4.7-265.2-3.9-398.1,7.7c-132.8,11.6-263.9,37.5-395.3,72.2c-66,17.4-132.6,34.2-199.5,37.2
			c-67.1,3-132.5-11.4-197.9-25.1c-63.8-13.4-128.3-25-193.9-16.3c-60.6,8-119.6,32.6-178.6,53.8c-54.4,19.5-109.6,36.3-165.4,34.6
			c-3.3-4.4-9-5.4-12-0.5c-7.9,1.2-10.3,15.5-4.9,20.7c-27.8,139.8-53.9,283.1-48.8,426.2c4.8,137.4,43.8,301.2,148.5,350.9
			c27,12.8,56,18.8,84.5,24.8c33.4,7.1,66.8,13.9,100.2,20.6c69,13.8,138.1,26.9,207.3,39.3c135.2,24.2,270.7,46,406.5,66.1
			c272.7,40.3,546.2,73.6,819.8,106.1c273.4,32.4,547.5,70.6,824.3,60.1c133.3-5.1,302.4,147.5,435.2,121.3
			c65.6-12.9,131.2-28,196.3-46.6c25.7-7.3,52.6-16.7,73.6-39.9c21.6-23.7,34-58.3,44.2-91.7
			C3084,2953.9,3051.7,2612.1,3055.2,2444.3z"/>
		<path class="st3" d="M2668.2,2435.3c-61.8-140.2-138.6-273-217.5-404.2c-9.8-16.3-19.7-32.7-29.6-49
			c-7.5-12.4-14.6-29.8-27.4-37.8c-14-8.8-32.1-3.5-47.4-1.8c-20,2.2-40.1,3.4-60.2,4c-78.1,2.5-156.5-1.5-234.6-1.8
			c-157.8-0.6-315.7,3.8-473.3,13c-157.6,9.2-314.8,23.4-471.5,42.4c-156,18.9-311.4,42.6-466,71.1c-19.3,3.6-38.6,7.2-57.9,10.9
			c-4.5,0.9-7.1,7.2-4.5,11c54.1,77.7,109.1,154.7,165.1,231.1c28,38.2,56.3,76.1,84.7,113.9c13.8,18.4,27.7,36.7,41.7,55
			c11.7,15.3,23.2,30.9,37.7,43.7c24.6,21.7,61.5,34,90.8,17.7c14.2,0.6,28.7-0.7,42.5-1.3c74.3-3.2,148.7-7.1,223-11.3
			c149.3-8.5,298.5-18.7,447.6-29.1c148.7-10.3,297.4-20.7,446.1-31.1c149.4-10.4,298.9-20.9,448.3-31.3c18.6-1.3,37.2-2.6,55.8-3.9
			C2667.8,2446.1,2670.6,2440.6,2668.2,2435.3z"/>
		<g class="st4">
			<path class="st5" d="M2466.4,2366.1c-4-7.4-8.1-14.7-12.1-22.1c-8.1-14.7-16.2-29.5-24.3-44.2c-7.4-13.4-13.8-28.3-23.2-40.4
				c-8.5-11-21.1-15.9-34.3-18.6c-15.8-3.3-31.7-6.1-47.6-9.1c-14.7-2.8-36.4-11.8-46.7,3.8c-4.2,6.4-6.9,14.4-9.9,21.5
				c-2,4.5-3.9,9-5.8,13.5c-1,0.1-2,0.4-3,0.7c-2.9,0.3-5.1,1.6-6.6,3.5c-7.5,5.4-13.5,14.8-17.9,21.9c-9.3,15.3-15.7,32.4-18.8,50
				c-1.4,7.8,5,16.7,13.8,13.8c18.3-6.1,36.1,3.1,50.4,14.2c15.6,12,29.5,25.7,46.4,35.9c32.8,19.8,71.4,29.5,109.6,28
				c8.8-0.4,13.6-9.2,9.7-16.9c-5.8-11.5-13-21.9-20.8-31.9c4.8,2.6,9.7,5.1,14.6,7.5c5.9,2.8,12.3,4.9,18.9,3.1
				c7.3-2,12.5-8.8,12.8-16.3C2471.9,2377.4,2469.4,2371.7,2466.4,2366.1z"/>
			<path class="st5" d="M2318.3,2187.3c-5.8-33.5-15.2-66.7-25.3-99.1c-10.6-34.1-23.1-67.6-37.2-100.4
				c-13.8-31.9-29.2-63.1-46.1-93.4c-16.8-30.1-36.4-59-49.8-90.9c-13.7-32.7-16.4-66.5-13.2-101.5c3.1-34.7,10-68.9,11.2-103.8
				c4.2-130-65.6-250-157.8-337c-21.7-20.5-44.8-40.4-61.5-65.4c-7.8-11.7-14-24.8-16.4-38.8c-2.7-16.2,0-32.2,4.3-47.8
				c8.2-29.4,18.9-57,21.2-87.8c2.1-28.2-0.6-56.4-8.1-83.7c-14.3-51.9-49.6-99.9-100.5-120.6c-39.5-16.1-86-16.8-125.7-0.8
				c-1-0.1-2.1-0.1-3.2,0.1c-76.2,12.4-104.2,98.9-111.7,165.5c-2.2,19.9-3.7,41-3.6,62.1c-11.7,34.7-21.6,69.9-29.5,105.7
				c-0.8,3.6,1.1,7.1,4.7,8.2c6.2,2,12-0.5,17.1-4c5.6-3.8,11.1-7.8,16.7-11.8c1.6-1.2,3.3-2.3,4.9-3.5c11.8,35.1,32.2,66.2,65.6,88
				c32.1,20.9,72.2,30.8,108.9,19.2c3.1,54.4-0.3,108.9-10.2,162.5c-2.2,12-4.7,23.9-7.6,35.7c-145.2-19.5-287.6-62.7-419.1-127.4
				c-7.2-3.6-14.5-7.9-22.9-7.4c-10.3,0.6-17.7,9.6-15.8,19.9c0.7,3.7,2.1,7.5,3.8,11.1c-7.6-2.6-15.5-4.5-23.6-5.6
				c-9.3-1.3-17.8,7.2-12.7,16.5c3.9,7.1,7.8,14.2,11.8,21.3c-8.4-2.2-17.1-3.6-26-4.1c-6.8-0.4-13.3,7.6-10.8,14.2
				c3.8,10.1,8.6,19.6,14.3,28.4c-12.3-6.7-24.6-13.6-36.6-20.8c-7.3-4.3-16.9,1.2-16.9,9.7c0,5.1,0.4,10.2,1.1,15.3
				c-9.2-8-18.7-15.6-28.5-22.9c-8.8-6.5-17.8,4.2-16.5,12.7c0.9,5.6,2.1,11.2,3.6,16.6c-1.4-1.9-2.9-3.8-4.3-5.7
				c-7.5-10.6-22.6-4-20.5,8.6c1.4,8.6,3.6,16.9,6.4,25c-4.6-3.8-9.2-7.7-13.8-11.5c-9.8-8.2-23.2,1.8-17.6,13.6
				c18.8,39.2,49.9,70.4,83.9,96.8c36.4,28.3,75.6,53.6,114.9,77.7c83.2,51,173.6,94,271,107.9c50.7,7.3,102.1,6.9,152.2-3.7
				c-17.1,48-37.8,94.7-61.8,139.7c-5.3,2.2-10.6,4.4-15.8,6.6c-31.9,13.2-63.7,26.5-94.3,42.6c-30.8,16.2-60.5,34.7-89.2,54.3
				c-28.8,19.7-56.8,40.7-84.5,62c-24.4,18.7-49.4,37.1-71.7,58.5c-20.2,19.4-39,41.6-48.9,68.2c-10.1,26.9-10.2,56.1,0.1,82.9
				c21.9,57.2,79.5,92.9,134.8,112.1c61.5,21.3,126.8,26,191.5,26.2c72,0.3,144-3.1,215.9-5c75.3-2,150.6-3.3,225.9-6.3
				c37.5-1.5,75.1-4,112.3-9.9c32.9-5.3,67.2-12.2,97.4-26.9c26.5-12.9,49.4-32.8,59.8-61.1
				C2324.5,2246.3,2323.3,2215.9,2318.3,2187.3z M1327.6,1332.4c0.1,0,0.1,0.1,0.2,0.1C1325.8,1333.9,1323.5,1329.5,1327.6,1332.4z"
				/>
			<path class="st6" d="M2332.9,2095.2c-24.2-53.2-48.9-106.1-73.3-159.1c-12.2-26.5-24.4-53-36.6-79.5
				c-11.4-24.8-23-49.6-31.1-75.7c-16.9-54.1-9.7-109.4-11.3-165c-1.3-44.6-8.3-89.2-20.8-132.1c-24.5-83.8-70.5-163-137.4-219.9
				c-16.4-14-34-26.6-52.6-37.7c-5.4-3.2-12-1-15.3,4c-24.8,37.6-56.9,69.2-92.7,96.2c-5.8,0.6-11.7,0.7-17.7-0.1
				c-25.2-3.1-59.5-20.1-58-49.9c0.6-12.7-18.9-15.1-22-3c-10.1,39.2-15.5,79.6-15.9,120.1c-6.1,2.6-12.3,4.9-18.6,6.9
				c-20.5,6.4-41.2,7.7-62.5,5.3c-39.7-4.5-79.4-16.3-116.4-30.8c-41.7-16.3-81.1-38.2-117.3-64.4c-5.2-3.7-12.2-0.6-15.3,4
				c-9.1,13.3-18.2,26.6-27.3,39.9c-1,1.5-1.6,3-1.9,4.5c-31.1,45.1-62.2,90.2-93.3,135.3c-18.2,26.4-36.5,52.9-54.7,79.3
				c-4.2,6.1-8.4,12.2-12.6,18.3c-4.1,5.9-8.5,11.9-9.9,19.1c-2.7,13.6,6,24.2,15.4,32.8c74.7,67.9,171.1,109.5,271.1,121.1
				c52.4,6.1,105.8,3.4,157.4-8c1,17.7-10.3,33.7-22.8,46.2c-17.9,17.9-40.5,30.7-62.3,43.2c-47.1,26.9-96.9,48.5-145.1,73.3
				c-83.7,43-169.1,101.2-203.1,193.2c-15.9,43.1-19.6,92.7-4.4,136.5c15.4,44.2,49.1,78.1,90,99.7c46.6,24.6,99.2,32.7,151.2,37.1
				c57.6,4.9,115.3,8.2,173,11.7c115.3,7,230.8,11.7,346.3,8.1c58-1.8,116-5.7,173.7-12.4c27.1-3.2,54.3-6.5,81.1-11.5
				c23.5-4.4,47.1-11,67.8-23.3c40.5-24.1,60.8-68.2,63.7-114C2374.6,2192.2,2354.2,2142,2332.9,2095.2z"/>
			<path class="st7" d="M1959.7,972c-9.7-55.6-34.4-113.2-82.4-149.3c-45.1-33.9-107.5-47.9-161.3-24.1
				c-32.1,14.2-56.1,38.9-75.7,66.6c-28.3,28.9-51.9,61.5-59.4,101.1c-3.1,16.5-3.2,33.1,0.4,49.5c1.2,5.7,9.2,6.9,13.2,3.3
				c13.2-11.9,26.5-23.8,39.7-35.6c-0.5,19.4,5,38.8,16.2,55.3c2.5,3.7,9,5.4,12.4,1.5c12-13.5,23-27.8,32.9-42.7
				c0.8,24.2,5.4,48.2,13.8,71.2c1.9,5.2,8.8,7.5,13.2,3.3c18.1-17.4,34.1-36.6,47.5-57.4c0.4,10,1.4,19.9,2.9,29.9
				c1.5,9.3,3.4,18.6,6,27.7c2,7.2,5.5,15,12.7,18.9c1.1,0.6,2.2,1.1,3.2,1.4c-4.7,8.3-9.6,16.5-15.1,24.4
				c-9,12.9-20,24.1-33.4,32.4c-16,7.8-32.7,14-49.8,18.7c-1.2,0.3-2.3,0.5-3.5,0.8c-7.8,1.8-15.6,3.4-23.4,5.1
				c-12.4,2.1-24.9,3.4-37.4,3.9c-3.5,0.1-6.9,3-6.7,6.7c1.3,25.3,15.8,47.8,36.4,62c23.2,16.1,53.1,19.8,80.6,16
				c14-1.9,28.1-5.6,38.8-15.4c10.4-9.5,17.5-23.1,24-35.4c13.6-25.3,24.1-52.5,31-80.4c1.2-4.7,2.2-9.4,3.2-14.1
				c0.5,2.6,1,5.3,1.6,7.9c1.2,5.4,9.4,7.3,13.2,3.3c7.7-7.9,14.5-16.5,20.3-25.6c0,3.6,0,7.1,0.1,10.7c0.2,6.9,0.3,14,2.1,20.7
				c3.3,12.2,14.3,22.8,28.4,17.1c12.2-4.9,22.4-17.8,29.7-27.8C1967.5,1080.1,1968.5,1022.3,1959.7,972z"/>
			<path class="st8" d="M1895,821.7c-26.8-22.5-58.8-39.3-92.8-47.8c-18.9-4.7-38.2-6.2-57.4-2.8c-16.2,2.9-31.9,9.3-46.1,17.6
				c-33.5,19.6-60.2,49-85.3,78.1c-4.8,5.6-0.2,13.1,5.3,13.7c0.5,1.6,1.7,2.9,3.7,3.9c84.1,40.7,170.2,77.5,257.7,110.2
				c24.6,9.2,49.2,18,74,26.6c3.9,1.3,8.9-1.5,9.7-5.5C1979.5,943.9,1950.8,868.7,1895,821.7z"/>
			<path class="st6" d="M1967,987.3l-41.2-18.1c0.2-0.7,0.4-1.5,0.4-2.3c2.6-55.8-17-111.5-53.4-153.7c2.8-3.1,3.4-8.5,0.1-11.3
				c-4-3.3-8.4-5.9-13.4-7.3c-0.1-0.1-0.2-0.2-0.3-0.3c-2.6-3.4-8.4-2.8-11.2,0c-1.8,1.8-2.4,4-2.2,6.1c-25-9.8-53.2-4.6-77.4,6.5
				c-14.4,6.7-27.7,15.4-40.9,24c-15,9.8-29.9,19.6-44.9,29.3c-0.7,0.5-1.3,1-1.8,1.6l-44.3-19.4c-3.9-1.7-8.5-1.1-10.8,2.8
				c-2,3.3-1.1,9.1,2.8,10.8l257.1,112.7c24.5,10.7,49,21.5,73.4,32.2c3.9,1.7,8.5,1.1,10.8-2.8C1971.9,994.8,1970.9,989,1967,987.3
				z M1710,874.6l-12.2-5.4c11.1-7.3,22.2-14.5,33.4-21.8c12.6-8.2,25.2-16.7,38.6-23.6c22.6-11.7,50.7-18.7,74.5-7
				c-7.9,34.9-19.3,69-34.2,101.5L1710,874.6z M1910.6,962.6l-86.2-37.8c15.1-33.1,26.8-67.5,34.9-103
				C1893.4,860.2,1911.8,911.2,1910.6,962.6z"/>
			<path class="st9" d="M1769.8,1512c35.8-20.3,66.5-48.6,93.6-79.3c6.7-7.6-4.4-18.8-11.2-11.2c-23.2,26.3-48.8,50.7-78.4,69.6
				c-30.5,19.5-64.9,31.9-100.9,36.2c-75.6,9-150.4-13.2-218-45.7c-39.5-19-77.3-41.4-115-63.7c-8.8-5.2-16.8,8.5-8,13.7
				c68.6,40.6,138.8,82.2,216.8,101.9C1622.3,1552.1,1702.5,1550.1,1769.8,1512"/>
			<path class="st9" d="M1747.8,1382c-8.4,39-16.7,78-25.1,117c-2.1,9.9,13.1,14.2,15.3,4.2c8.4-39,16.7-78,25.1-117
				C1765.2,1376.3,1749.9,1372,1747.8,1382z"/>
			<path class="st9" d="M2017.6,1573.3c-73.4,83.3-173.1,141.8-281.3,166.3c-30.5,6.9-61.5,11-92.7,12.3c-10.2,0.4-10.2,16.2,0,15.8
				c57-2.3,113.5-13.8,166.9-33.8c53.3-20,103.3-48,148.1-83.1c25.4-19.9,48.9-42.1,70.2-66.3
				C2035.5,1576.9,2024.3,1565.7,2017.6,1573.3z"/>
			<path class="st9" d="M2055.6,1594.2c-21.2,32.2-52.7,57.2-88.9,70.3c-9.5,3.4-5.4,18.7,4.2,15.3c40.3-14.6,74.8-41.7,98.4-77.6
				C2074.9,1593.7,2061.2,1585.8,2055.6,1594.2z"/>
			<path class="st9" d="M1672.5,2104.5l-117.2,32.7c-38.6,10.8-77,22.4-115.8,32.2c-17.8,4.5-37.4,8.1-55.4,2.7
				c-12.6-3.8-25.1-12.6-30.3-25c-6.6-15.6,2-31.3,10.5-44.2c10.2-15.4,21.2-30.4,32.5-45c25.6-33.1,53.6-64.4,83.6-93.7
				c7.3-7.1-3.9-18.3-11.2-11.2c-28.6,28-55.3,57.7-80,89.2c-12.2,15.5-23.9,31.3-35,47.5c-10.1,14.7-20.4,31.7-18.2,50.3
				c1.9,16.1,11.8,29.4,25,38.3c15.2,10.3,33.7,13.3,51.8,11.8c21.2-1.7,41.7-8.3,62-14c20.5-5.7,41.1-11.5,61.6-17.2
				c46.8-13.1,93.6-26.1,140.4-39.2C1686.5,2117,1682.3,2101.7,1672.5,2104.5z"/>
			<path class="st9" d="M1607.7,2038.3c-17.4,3.7-34.9,6.2-52.7,7.4c-8.9,0.6-17.7,0.9-26.6,0.9c-4.2,0-8.4,0.1-12.6-0.2
				c-2.2-0.2-5.3-0.3-6.9-2.1c-3.2-3.5-0.1-10.8,1.5-14.3c3.2-6.7,7.9-12.9,12.3-18.8c9.6-12.9,20.7-24.6,32.8-35.2
				c7.7-6.7-3.5-17.9-11.2-11.2c-14.5,12.7-27.4,27.1-38.6,42.9c-8.4,12-19.9,29.9-10.5,44.5c4.7,7.4,13.2,9.5,21.4,10
				c10.7,0.6,21.6,0.2,32.3-0.3c21.2-1.1,42.3-3.9,63-8.3C1621.9,2051.5,1617.7,2036.2,1607.7,2038.3z"/>
			<path class="st10" d="M2438.3,2391.6c-25.2-29-48.3-59.8-69.1-92.2c-5.5-8.5-19.2-0.6-13.7,8c21.6,33.4,45.5,65.3,71.6,95.4
				C2433.8,2410.5,2445,2399.2,2438.3,2391.6z"/>
			<path class="st10" d="M1334.2,1425.9c-20.7-11.7-41.4-23.4-62.2-35.1c-8.9-5-16.9,8.7-8,13.7c20.7,11.7,41.4,23.4,62.2,35.1
				C1335.1,1444.5,1343.1,1430.9,1334.2,1425.9z"/>
			<path class="st7" d="M1679.4,1076c-0.6-4.5-1.8-10.2-6.2-12.4c-4.8-2.4-9.8,0.2-12.1,4.7c-4.2,8.1-5.3,20.7,0.4,28.2
				c2.6,3.5,6.8,4.2,9.9,1.7C1678.9,1096.4,1680.2,1082.4,1679.4,1076z"/>
		</g>
		<path class="st11" d="M1178.1,2440.7c-42.4-47.4-81.1-98-115.9-151.3c-33-50.6-62.8-103.4-99.4-151.6
			c-9.3-12.2-18.9-24.1-29.1-35.6c-9.4-10.5-19-23.1-33.9-24.9c-7.7-0.9-15.6,0.5-23.2,1.3c-8.4,0.9-16.9,1.8-25.3,2.8
			c-16.5,1.9-33.1,4-49.6,6.2c-66.6,9-132.9,20.4-198.7,34.4c-16.3,3.5-32.5,7.1-48.7,10.8c-12.8,3-27.1,5.2-37.9,13.2
			c-1.7,1.3-3.2,2.6-4.7,4.1c-7.2,3.3-14.3,7.9-14.9,16.7c-0.4,5.6,2.4,10.6,5.1,15.3c1.9,3.2,3.7,6.4,5.6,9.6
			c2.6,5.5,5.9,10.6,9.2,15.7c4.2,7.2,8.3,14.3,12.5,21.5c0.4,0.7,0.9,1.3,1.4,1.8c26.2,45.3,52.5,90.6,78.7,135.9
			c27.9,48.2,54.9,97.4,89.4,141.3c7.6,9.7,15.3,20.4,25.6,27.4c12.1,8.3,26.3,6.5,40,4.5c27.6-4.1,54.9-10.2,81.7-18.2
			c26.8-8.1,52.8-18.5,79.8-25.8c28.1-7.6,56.5-9.6,85.5-9.4c57.1,0.3,120,3.8,166.8-35C1181.3,2448.7,1180.6,2443.5,1178.1,2440.7z
			"/>
		<path class="st12" d="M1140.8,2426.3c-37.7-42.2-72.2-87.3-103.1-134.7c-29.4-45.1-55.9-92.1-88.5-135
			c-8.3-10.9-16.8-21.5-25.9-31.6c-8.3-9.3-16.9-20.6-30.2-22.2c-6.9-0.8-13.8,0.4-20.7,1.1c-7.5,0.8-15,1.6-22.5,2.5
			c-14.7,1.7-29.4,3.6-44.1,5.5c-59.3,8-118.3,18.2-176.9,30.6c-14.5,3.1-29,6.3-43.4,9.6c-11.4,2.6-24.1,4.7-33.7,11.8
			c-1.5,1.1-2.9,2.3-4.1,3.7c-6.5,3-12.7,7.1-13.3,14.9c-0.3,5,2.1,9.4,4.5,13.6c1.7,2.8,3.3,5.7,5,8.5c2.3,4.9,5.2,9.5,8.1,14
			c3.7,6.4,7.4,12.7,11.1,19.1c0.4,0.6,0.8,1.1,1.2,1.6c23.3,40.3,46.7,80.6,70.1,120.9c24.9,42.9,48.8,86.7,79.6,125.8
			c6.8,8.6,13.7,18.2,22.8,24.4c10.8,7.4,23.4,5.8,35.6,4c24.6-3.6,48.9-9.1,72.7-16.2c23.8-7.2,47-16.4,71.1-23
			c25.1-6.8,50.3-8.5,76.1-8.4c50.8,0.3,106.8,3.4,148.5-31.1C1143.7,2433.4,1143,2428.8,1140.8,2426.3z"/>
		<path class="st13" d="M1106.9,2421c-94.8,23.8-190.9,42.4-287.9,55.1c-27.6,3.6-55.3,6.8-83,9.6c-4,0.4-7.5,3.2-7.5,7.5
			c0,3.7,3.4,7.9,7.5,7.5c98.6-9.8,196.7-25.1,293.5-46.1c27.2-5.9,54.3-12.3,81.3-19.1C1120.2,2433.1,1116.2,2418.7,1106.9,2421z"
			/>
		<path class="st13" d="M1115.9,2402.4c-104.8,8.8-209.1,22.7-312.5,41.7c-27.4,5-54.6,10.5-81.9,16.2c-11-40.8-31.2-78.8-58.7-111
			c-6.5-7.5-13.3-14.7-20.6-21.5l276-57.9c28-5.9,56-11.7,84-17.6c9.4-2,5.4-16.4-4-14.5l-294.9,61.9c-25,5.2-50,10.5-75,15.7
			c-0.8-0.8-1.5-1.7-2.1-2.6c-3.4-4.9-3.5-11.6-4.6-17.3c-4.7-24.2-12.7-47.7-23.2-70c-11.8-24.8-27.1-47.8-45.2-68.4
			c-6.4-7.3-17,3.4-10.6,10.6c31.6,36,53.6,80,63.6,126.8c2.1,9.7,3,19,8.2,27c-1.6,4.8,2.4,11.6,9,10.2l0.5-0.1
			c6.9,6.3,13.9,12.4,20.3,19.2c15.5,16.6,28.8,35.1,39.6,55.1c12.4,22.8,21.3,47.3,26.7,72.7c2,9.4,16.3,5.5,14.5-3.8
			c100.2-21.2,201.4-37.6,303.1-48.9c29.2-3.3,58.4-6.1,87.7-8.5C1125.5,2416.6,1125.5,2401.6,1115.9,2402.4z"/>
		<path class="st14" d="M443.6,346.1c-9.7,0-9.7,15,0,15C453.2,361.1,453.2,346.1,443.6,346.1z"/>
		<path class="st14" d="M869.5,610c-9.7,0-9.7,15,0,15C879.1,625,879.1,610,869.5,610z"/>
		<path class="st14" d="M545.5,1005.9h-6c-3.9,0-7.7,3.4-7.5,7.5c0.2,4.1,3.3,7.5,7.5,7.5h6c3.9,0,7.7-3.4,7.5-7.5
			C552.9,1009.4,549.7,1005.9,545.5,1005.9z"/>
		<path class="st14" d="M815.5,1569.8c-4.1,0.2-7.5,3.3-7.5,7.5v6c0,3.9,3.4,7.7,7.5,7.5c4.1-0.2,7.5-3.3,7.5-7.5v-6
			C823,1573.4,819.5,1569.6,815.5,1569.8z"/>
		<path class="st14" d="M109.1,1206.9c-9.7,0-9.7,15,0,15C118.7,1221.9,118.8,1206.9,109.1,1206.9z"/>
		<path class="st14" d="M173.6,922c-9.7,0-9.7,15,0,15C183.3,937,183.3,922,173.6,922z"/>
		<path class="st14" d="M586.8,552.2c-3-2.7-7.6-3-10.6,0c-2,2-4,4-6,6c-2.8,2.8-3,7.9,0,10.6c3,2.7,7.6,3,10.6,0c2-2,4-4,6-6
			C589.6,560.1,589.8,555,586.8,552.2z"/>
		<path class="st14" d="M311.6,1203.9c-9.7,0-9.7,15,0,15C321.2,1218.9,321.2,1203.9,311.6,1203.9z"/>
		<path class="st14" d="M1491.7,1017.7c-9.7,0-9.7,15,0,15C1501.4,1032.7,1501.4,1017.7,1491.7,1017.7z"/>
		<path class="st14" d="M593.5,1407.9c-9.7,0-9.7,15,0,15C603.2,1422.9,603.2,1407.9,593.5,1407.9z"/>
		<path class="st14" d="M665.3,1785.8c-9.7,0-9.7,15,0,15C674.9,1800.8,674.9,1785.8,665.3,1785.8z"/>
		<path class="st14" d="M215.6,1419.9h-6c-3.9,0-7.7,3.4-7.5,7.5c0.2,4.1,3.3,7.5,7.5,7.5h6c3.9,0,7.7-3.4,7.5-7.5
			C222.9,1423.3,219.8,1419.9,215.6,1419.9z"/>
		<path class="st14" d="M574.8,1650c-3-2.7-7.6-3-10.6,0c-2,2-4,4-6,6c-2.8,2.8-3,7.9,0,10.6c3,2.7,7.6,3,10.6,0c2-2,4-4,6-6
			C577.6,1657.8,577.8,1652.7,574.8,1650z"/>
		<path class="st14" d="M1283,1055.1h-6c-3.9,0-7.7,3.4-7.5,7.5c0.2,4.1,3.3,7.5,7.5,7.5h6c3.9,0,7.7-3.4,7.5-7.5
			C1290.3,1058.5,1287.2,1055.1,1283,1055.1z"/>
		<path class="st14" d="M88.2,659.5c-9.7,0-9.7,15,0,15C97.8,674.5,97.8,659.5,88.2,659.5z"/>
		<path class="st14" d="M800.5,1193.4c-4.1,0.2-7.5,3.3-7.5,7.5v6c0,3.9,3.4,7.7,7.5,7.5c4.1-0.2,7.5-3.3,7.5-7.5v-6
			C808,1197,804.5,1193.2,800.5,1193.4z"/>
		<path class="st14" d="M239.6,106.1c-9.7,0-9.7,15,0,15C249.2,121.1,249.3,106.1,239.6,106.1z"/>
		<path class="st14" d="M149.6,442.1c-9.7,0-9.7,15,0,15C159.3,457.1,159.3,442.1,149.6,442.1z"/>
		<path class="st14" d="M305.6,634c-9.7,0-9.7,15,0,15C315.2,649,315.2,634,305.6,634z"/>
		<path class="st14" d="M743.5,844c-9.7,0-9.7,15,0,15C753.1,859,753.2,844,743.5,844z"/>
		<path class="st14" d="M566.5,1217.3c-9.7,0-9.7,15,0,15C576.2,1232.3,576.2,1217.3,566.5,1217.3z"/>
		<path class="st14" d="M59.6,1557.8c-9.7,0-9.7,15,0,15C69.3,1572.8,69.3,1557.8,59.6,1557.8z"/>
		<path class="st14" d="M71.6,70.1c-9.7,0-9.7,15,0,15C81.3,85.1,81.3,70.1,71.6,70.1z"/>
		<path class="st14" d="M106.9,1848c-3-2.7-7.6-3-10.6,0l-6,6c-2.8,2.8-3,7.9,0,10.6c3,2.7,7.6,3,10.6,0l6-6
			C109.7,1855.8,109.9,1850.7,106.9,1848z"/>
		<path class="st14" d="M2183.2,1167.9c-9.7,0-9.7,15,0,15C2192.9,1182.9,2192.9,1167.9,2183.2,1167.9z"/>
		<path class="st14" d="M2333.2,1563.8c-4.1,0.2-7.5,3.3-7.5,7.5v6c0,3.9,3.4,7.7,7.5,7.5c4.1-0.2,7.5-3.3,7.5-7.5v-6
			C2340.7,1567.4,2337.2,1563.6,2333.2,1563.8z"/>
		<path class="st14" d="M2765.1,1709.3c-9.7,0-9.7,15,0,15C2774.7,1724.3,2774.8,1709.3,2765.1,1709.3z"/>
		<path class="st14" d="M2675.1,1275.9c-9.7,0-9.7,15,0,15C2684.8,1290.9,2684.8,1275.9,2675.1,1275.9z"/>
		<path class="st14" d="M2685.4,1501.3h-6c-3.9,0-7.7,3.4-7.5,7.5c0.2,4.1,3.3,7.5,7.5,7.5h6c3.9,0,7.7-3.4,7.5-7.5
			C2692.7,1504.8,2689.6,1501.3,2685.4,1501.3z"/>
		<path class="st14" d="M2471.1,1365.9c-4.1,0.2-7.5,3.3-7.5,7.5v6c0,3.9,3.4,7.7,7.5,7.5c4.1-0.2,7.5-3.3,7.5-7.5v-6
			C2478.6,1369.4,2475.2,1365.7,2471.1,1365.9z"/>
		<path class="st14" d="M2319.7,959.4v3.7c0,9.7,15,9.7,15,0v-3.7C2334.7,949.8,2319.7,949.8,2319.7,959.4z"/>
		<path class="st14" d="M2736.7,297.2h-6c-3.9,0-7.7,3.4-7.5,7.5c0.2,4.1,3.3,7.5,7.5,7.5h6c3.9,0,7.7-3.4,7.5-7.5
			C2744,300.6,2740.9,297.2,2736.7,297.2z"/>
		<path class="st14" d="M2615.1,838c-9.7,0-9.7,15,0,15C2624.8,853,2624.8,838,2615.1,838z"/>
		<path class="st14" d="M2765.1,1101.9c-4.1,0.2-7.5,3.3-7.5,7.5v12c0,3.9,3.4,7.7,7.5,7.5c4.1-0.2,7.5-3.3,7.5-7.5v-12
			C2772.6,1105.5,2769.1,1101.7,2765.1,1101.9z"/>
		<path class="st14" d="M2675.1,496c-9.7,0-9.7,15,0,15C2684.8,511,2684.8,496,2675.1,496z"/>
		<path class="st14" d="M2423.2,598c-4.1,0.2-7.5,3.3-7.5,7.5v6c0,3.9,3.4,7.7,7.5,7.5c4.1-0.2,7.5-3.3,7.5-7.5v-6
			C2430.7,601.6,2427.2,597.8,2423.2,598z"/>
		<path class="st14" d="M1613.3,100.1h-6c-3.9,0-7.7,3.4-7.5,7.5c0.2,4.1,3.3,7.5,7.5,7.5h6c3.9,0,7.7-3.4,7.5-7.5
			C1620.6,103.6,1617.5,100.1,1613.3,100.1z"/>
		<path class="st14" d="M1763.3,334.1c-4.1,0.2-7.5,3.3-7.5,7.5v6c0,3.9,3.4,7.7,7.5,7.5c4.1-0.2,7.5-3.3,7.5-7.5v-6
			C1770.8,337.7,1767.3,333.9,1763.3,334.1z"/>
		<path class="st14" d="M2279.8,337.1c-9.7,0-9.7,15,0,15C2289.5,352.1,2289.5,337.1,2279.8,337.1z"/>
		<path class="st14" d="M2087.2,214.1h-6c-3.9,0-7.7,3.4-7.5,7.5c0.2,4.1,3.3,7.5,7.5,7.5h6c3.9,0,7.7-3.4,7.5-7.5
			C2094.5,217.5,2091.4,214.1,2087.2,214.1z"/>
		<path class="st14" d="M2165.2,538c-4.1,0.2-7.5,3.3-7.5,7.5v6c0,3.9,3.4,7.7,7.5,7.5c4.1-0.2,7.5-3.3,7.5-7.5v-6
			C2172.7,541.6,2169.3,537.9,2165.2,538z"/>
		<path class="st14" d="M2441.2,274.1c-9.7,0-9.7,15,0,15C2450.8,289.1,2450.8,274.1,2441.2,274.1z"/>
		<path class="st14" d="M2669.1,130.1c-4.1,0.2-7.5,3.3-7.5,7.5v6c0,3.9,3.4,7.7,7.5,7.5c4.1-0.2,7.5-3.3,7.5-7.5v-6
			C2676.6,133.7,2673.2,129.9,2669.1,130.1z"/>
		<path class="st14" d="M2248.9,100.1c-9.7,0-9.7,15,0,15C2258.5,115.1,2258.5,100.1,2248.9,100.1z"/>
		<path class="st14" d="M1913.3,34.1h-6c-3.9,0-7.7,3.4-7.5,7.5c0.2,4.1,3.3,7.5,7.5,7.5h6c3.9,0,7.7-3.4,7.5-7.5
			C1920.6,37.6,1917.5,34.1,1913.3,34.1z"/>
		<path class="st14" d="M2489.1,22.1c-4.1,0.2-7.5,3.3-7.5,7.5v6c0,3.9,3.4,7.7,7.5,7.5c4.1-0.2,7.5-3.3,7.5-7.5v-6
			C2496.6,25.7,2493.2,22,2489.1,22.1z"/>
		<path class="st13" d="M1461.1,562.2c5.6-5.6,10.8-11.6,15.8-17.7c6.1-7.5-2.7-16.8-10.4-10.8c-53.6,41.8-137.4,48.4-187.7-2.2
			c-23.1-23.3-37.6-55.8-36-88.9c1.7-36.7,24.6-67.9,53-89.5c39.3-29.9,89.3-40.8,136.5-51.5c6.2-1.4,6.8-8.2,3.9-12.1
			c1.6-3.8,0.6-8.6-4.6-9.7c-64.3-13.8-132.4-19.7-196.5-1.3c-57.3,16.4-111.6,54.3-137.9,109c-14.1,29.3-20.3,62.6-13.2,94.7
			c6.9,31.4,24.3,60.6,46.2,83.9c40.4,43.2,99.2,69,158.4,69.4C1352.9,635.8,1416.1,607.7,1461.1,562.2z"/>
		<path class="st14" d="M1367.4,832c-4.1,0.2-7.5,3.3-7.5,7.5v12c0,3.9,3.4,7.7,7.5,7.5c4.1-0.2,7.5-3.3,7.5-7.5v-12
			C1374.9,835.6,1371.4,831.8,1367.4,832z"/>
		<path class="st14" d="M1685.3,652c-9.7,0-9.7,15,0,15C1695,667,1695,652,1685.3,652z"/>
		<path class="st14" d="M1463.3,442.1c-9.7,0-9.7,15,0,15C1473,457.1,1473,442.1,1463.3,442.1z"/>
		<path class="st14" d="M617.5,154.1c-9.7,0-9.7,15,0,15C627.2,169.1,627.2,154.1,617.5,154.1z"/>
		<path class="st14" d="M839.5,346.1c-4.1,0.2-7.5,3.3-7.5,7.5v6c0,3.9,3.4,7.7,7.5,7.5c4.1-0.2,7.5-3.3,7.5-7.5v-6
			C847,349.6,843.5,345.9,839.5,346.1z"/>
		<path class="st14" d="M1001.4,142.1c-9.7,0-9.7,15,0,15C1011.1,157.1,1011.1,142.1,1001.4,142.1z"/>
		<path class="st14" d="M1397.4,160.1c-9.7,0-9.7,15,0,15C1407,175.1,1407,160.1,1397.4,160.1z"/>
		<path class="st15" d="M1048.8,2646.1c-58.8,15.9-119.6,21.4-180.3,22.8c-30.5,0.7-61.1,0.3-91.6-0.3c-31-0.6-62.1-1.2-93-2.7
			c-62-3.2-122.4-14.8-183-27.4c-57.9-12.1-116.1-24.1-175.3-26.5c-62.3-2.6-125.7,5.5-182.1,33.3c-8.7,4.3-1.1,17.2,7.6,13
			c104.4-51.6,225.5-30.3,334.5-7.7c60.1,12.5,120.1,25.2,181.5,29.3c30.9,2.1,61.8,2.7,92.7,3.4c30.5,0.7,61.1,1.3,91.6,1
			c67.7-0.7,135.9-5.9,201.5-23.6C1062.1,2658.1,1058.1,2643.6,1048.8,2646.1z"/>
		<path class="st15" d="M2607.3,2666c-94.2-2.9-188.4-5.8-282.6-8.7c-46.7-1.4-93.4-2.7-140.1-4.3c-23-0.8-46.1-2.1-68.9-5.9
			c-21.8-3.7-43.4-8.9-65.4-11.4c-24.7-2.8-49.1-0.8-73,6.3c-23.4,6.9-45.5,17.4-67.5,27.9c-8.7,4.2-1.1,17.1,7.6,13
			c38.6-18.4,77.9-36,121.7-33.2c22,1.4,43.6,6.6,65.2,10.6c22.4,4.1,44.9,6.2,67.6,7.2c46.3,2.1,92.6,3,138.9,4.4
			c46.4,1.4,92.9,2.9,139.3,4.3c52.4,1.6,104.8,3.2,157.2,4.9C2617,2681.3,2617,2666.3,2607.3,2666z"/>
		<path class="st15" d="M2743.1,2590.5c-51.6,16.3-105.6,23.8-159.7,22.2c-27.7-0.8-55.3-3.7-83-5.6c-28.1-1.8-56.1-2-84.1,0.6
			c-31.4,2.9-62.4,8.4-93.4,13.9c-9.5,1.7-5.5,16.1,4,14.5c27.7-4.9,55.5-9.9,83.5-12.8c27.7-2.9,55.4-3.2,83.1-1.6
			c27.7,1.6,55.2,4.6,82.9,5.7c27.3,1.1,54.6,0.2,81.8-3.2c30.1-3.7,59.8-10.1,88.8-19.2C2756.3,2602,2752.4,2587.6,2743.1,2590.5z"
			/>
		<path class="st15" d="M2891.7,2088.5c-45.5,8.1-91.9,0.1-137.1-6.4c-40.6-5.9-81.8-10.4-122.6-3.4c-22,3.8-43.4,11.4-62.2,23.4
			c-8.1,5.2-0.6,18.2,7.6,13c72.2-46.3,162.8-16.5,241.2-9.7c25.8,2.3,51.6,2.1,77.1-2.4C2905.1,2101.3,2901.1,2086.8,2891.7,2088.5
			z"/>
		<path class="st15" d="M2863.4,2042.3c-64.8,8.5-125.7-24.8-190-24.7c-17.7,0-35.3,2.9-51.7,9.5c-3.7,1.5-6.4,5-5.2,9.2
			c1,3.6,5.4,6.8,9.2,5.2c28.7-11.6,59.4-10.3,89.3-4.8c31.7,5.7,62.8,15.1,94.8,19.5c17.8,2.4,35.8,3.4,53.6,1
			c4-0.5,7.5-3.1,7.5-7.5C2870.9,2046.1,2867.4,2041.8,2863.4,2042.3z"/>
		<path class="st15" d="M356.5,2208.6c-58.2-3.4-116.4-6.8-174.6-10.2c-28.8-1.7-57.6-3.5-86.4-3.5c-28.1,0.1-56.1,2.3-83.8,6.3
			c-30.8,4.5-61.1,11.5-90.7,20.9c-9.2,2.9-5.3,17.4,4,14.5c52.6-16.6,107.4-25.8,162.7-26.6c28.5-0.5,57,1.2,85.4,2.9
			c28.6,1.7,57.2,3.3,85.8,5c32.6,1.9,65.2,3.8,97.7,5.7C366.2,2224.2,366.1,2209.2,356.5,2208.6z"/>
		<path class="st15" d="M415.4,2124.6c-79.6-1-159.2-1.9-238.8-2.9c-22.6-0.3-45.1-0.5-67.7-0.8c-9.7-0.1-9.7,14.9,0,15
			c79.6,1,159.2,1.9,238.8,2.9c22.6,0.3,45.1,0.5,67.7,0.8C425.1,2139.8,425.1,2124.8,415.4,2124.6z"/>
	</g>
</g>
</svg>
